<svg xmlns="http://www.w3.org/2000/svg" viewBox="0 0 24 24" width="24" height="24" fill="none" stroke="currentColor" stroke-width="1.6" stroke-linecap="round" stroke-linejoin="round">
  <!-- brain outline simplified as interconnected circles -->
  <path d="M9 3.5A2.5 2.5 0 0 0 6.5 6v.5A2.5 2.5 0 0 0 4 9a2.5 2.5 0 0 0 1.5 2.3v.2A2.5 2.5 0 0 0 8 14a2.5 2.5 0 0 0 .5 1.5V17a2 2 0 0 0 4 0v-1.5A2.5 2.5 0 0 0 16 13a2.5 2.5 0 0 0 1.5-2.3v-.2A2.5 2.5 0 0 0 19 9a2.5 2.5 0 0 0-2.5-2.5V6A2.5 2.5 0 0 0 14 3.5a2.5 2.5 0 0 0-2 1 2.5 2.5 0 0 0-3 0Z"/>
  <line x1="12" y1="9" x2="12" y2="13"/>
  <line x1="9.5" y1="10" x2="14.5" y2="10"/>
</svg>
